<?xml version="1.0" encoding="UTF-8"?>
<svg xmlns="http://www.w3.org/2000/svg" width="40" height="40" viewBox="0 0 40 40" fill="none">
  <path d="M34.75 10.75C34.75 9.75001 34.5 8.75001 33.75 8.00001C30 2.25001 23.75 2.50001 21.5 2.50001C9.75 2.50001 5 12.5 5 19.5C5 23.25 5.75 27 7.5 30V30.25C7.75 30.75 8.25 31.5 8.75 32C8.75 32 16.5 28 17.5 27.5C17.25 27 16 24.5 16 18.75C16 13.5 16 6.00001 21.25 4.75001C25.75 3.75001 26.25 6.50001 25.25 8.50001C24.75 9.00001 23.75 9.75001 23.75 11.5C23.75 14.5 26 16.25 28.75 16.5C32 16.75 34.5 14.25 34.75 11.25C34.75 11.25 34.75 11 34.75 10.75Z" fill="#161D2C" fill-opacity="0.7"></path>
  <path d="M8.25 31.75C11 35.25 15.5 37.5 21.5 37.5C33 37.5 36.5 29.75 36.5 29.75L36 29.5C32 35.25 19.5 36.5 17 27.25" fill="#161D2D"></path>
  <path d="M40 14.25L0 35V38L40 17.5V14.25Z" fill="#0D3FF2"></path>
</svg>
