<?xml version="1.0" encoding="UTF-8"?>
<svg xmlns="http://www.w3.org/2000/svg" xmlns:xlink="http://www.w3.org/1999/xlink" version="1.1" viewBox="0 0 660 696">
  <defs>
    <style>
      .cls-1, .cls-2 {
        fill: none;
      }

      .cls-3 {
        fill: #1970ff;
      }

      .cls-4, .cls-5, .cls-6, .cls-7, .cls-8, .cls-9, .cls-10, .cls-11, .cls-12 {
        isolation: isolate;
      }

      .cls-4, .cls-6, .cls-11, .cls-12 {
        font-size: 14px;
      }

      .cls-4, .cls-10, .cls-11 {
        font-family: ArialMT, Arial;
      }

      .cls-4, .cls-12 {
        fill: #202124;
      }

      .cls-13 {
        fill: #9e1a1a;
      }

      .cls-5 {
        font-size: 25px;
      }

      .cls-5, .cls-6 {
        fill: #181818;
      }

      .cls-5, .cls-7, .cls-9 {
        font-weight: 700;
      }

      .cls-5, .cls-9 {
        font-family: Georgia-Bold, Georgia;
      }

      .cls-6, .cls-12 {
        font-family: Inter-Regular, Inter;
      }

      .cls-7 {
        fill: #428ea8;
        font-family: Arial-BoldMT, Arial;
        font-size: 20px;
      }

      .cls-14 {
        fill: #4f6ab1;
      }

      .cls-15 {
        fill: #f8f6f1;
      }

      .cls-9 {
        fill: #1a1a1a;
        font-size: 50px;
      }

      .cls-2 {
        stroke: #f8f6f1;
        stroke-width: 3px;
      }

      .cls-10 {
        font-size: 15px;
      }

      .cls-16 {
        opacity: .3;
      }

      .cls-17 {
        fill: #151c2c;
      }

      .cls-18 {
        clip-path: url(#clippath);
      }
    </style>
    <clipPath id="clippath">
      <rect class="cls-1" x="9.3" y="665.3" width="23.9" height="20.9"/>
    </clipPath>
  </defs>
  <!-- Generator: Adobe Illustrator 28.7.2, SVG Export Plug-In . SVG Version: 1.2.0 Build 154)  -->
  <g>
    <g id="Layer_1">
      <rect class="cls-15" x=".5" y=".2" width="659" height="696"/>
      <g class="cls-16">
        <rect class="cls-3" x="160.5" y="179.2" width="244" height="510"/>
        <path class="cls-3" d="M316.8,180h-84.1c-.2-.4-.5-.8-.6-1.3-.2-.6-.7-.9-.9-1.4s-.5-1-.7-1.5c-.3-1.2-.6-2.5-.8-3.8-.2-.9-.4-1.7-.6-2.6v-1.3c.1-.9.3-1.7.2-2.6v-.4c.6-.8.8-1.9,1.1-2.9,0-.2.1-.4.2-.5.3-.2.4-.5.4-.9s.3-.6.5-.9c.2-.3.4-.7.7-.9.5-.3.7-.9,1-1.4.6-.7,1.1-1.5,1.7-2.2.1-.2.4-.2.6-.4.1,0,.3-.2.5-.3.1.1.4.3.5-.2,0-.1.2-.2.3-.2.3-.1.6-.1.9-.3.1,0,.3-.5.2-.6-.4-1.3-.8-2.5-1.4-3.7-.9-2.1-1.6-4.3-1.4-6.7.1-1.6-.4-2.9-1.2-4.1-.7-1.2-1.2-2.7-1.4-4.1-.1-1.3,0-2.6.6-3.9.4-1,.8-2.1,1.1-3.2.6-2.4,1.1-4.9,1.6-7.3.2-.9.5-1.9.7-2.8,0-.2.1-.4.2-.6,0-1.1.5-1.9.8-2.9v-.4c.1-.4.3-.8.4-1.1.2-.8.4-1.6.7-2.3.5-1.6.4-3.3.3-5,0-2.1-.2-4.1.1-6.1.3-2.2.5-4.4.8-6.6.2-1.3.6-2.6.9-3.8.3-1.2.6-2.4,1-3.5.7-2.1,1.4-4.2,2.2-6.3,1.1-3.1,2.8-5.7,4.6-8.2,1.4-1.9,2.6-3.9,4-5.8.6-.9,1.3-1.9,2.1-2.7,1.7-1.9,3.3-3.9,5.1-5.6,1.4-1.3,3-2.3,4.6-3.3,1.3-.8,2.7-1.4,4-2,1-.4,2-.6,3.1-.7,1.4-.2,2.7-.4,4.1-.5h4.7c1.8,0,3.5.3,5.2.3s2.1,0,3.2.4c0,0,.2,0,.3-.2h.1c1.3.7,2.8.4,4.1.4h6.5c1,0,2,.2,3,.2h.2c1.4-.2,2.7.2,4,.4,1.2.3,2.3.6,3.4,1.2,1.2.7,2,1.7,2.3,3.3.2,1.3.5,2.7.8,4-.4,1,.5.9.8,1.3.6.7,1.3,1.3,1.9,2,.6.6,1.1,1.2,1.7,1.9,1,1.3,1.8,2.7,2.5,4.3.8,1.8,1.7,3.6,2.9,5.1,1.3,1.7,2.2,3.7,2.4,6,0,1.2-.1,2.5-.1,3.8s-.4,2.4,0,3.5c.3.7.8,1.4,1.3,2,1.2,1.5,2.4,2.9,3.6,4.3.9,1.1,1.9,2.2,2.8,3.3,1,1.3,1.9,2.6,2.8,3.9.6.8.4,2.7-.2,3.8-.8,1.6-2.2,2.3-3.4,3.2-.1,0-.3.2-.4.3.4,1.3.8,2.6,1.2,3.8.1.5.2,1,.3,1.5,0,.3,0,.6.2.8.7,1.4.5,2.7,0,4.1h0c-.1.3-.3.6-.3.9s.4.4.6.6c.7.6,1.1,1.4,1.1,2.5v1.5c0,.7-.4,1.1-.7,1.4-.5.4-.6.9-.5,1.5.3,1.4.6,2.7.9,4.1.1.9.3,1.8.2,2.7,0,1.4-.2,2.9-.7,4.2-.9,2.1-1.9,3.9-4,4.5-1.7.5-3.3.9-5,1.1-1.1.1-2.2.1-3.3.5-2,.7-3.8,1.9-5.1,4.1-1,1.6-2.1,3.3-3.1,4.9-.4.5-.8,1-1.1,1.5-.6.7-1.2,1.4-1.7,2.2-.2.3-.3.8-.4,1.3,0,.4-.1.9-.1,1.4,0,1.8,0,3.6-.1,5.4v.7c-.1.9.2,1.6.6,2.4,1.3,2.4,2.6,4.9,3.9,7.3.8,1.5,1.7,3,2.5,4.5h0l-.5-.2h0Z"/>
      </g>
      <g class="cls-16">
        <rect class="cls-13" x="404.5" y="179.2" width="244" height="510"/>
        <path class="cls-13" d="M492.1,132.2c-7,1.4-13.5,2.3-19.1-3.1,10.7-2.5,12.6-10.1,12.9-18.4.2-6.5-1-12.7-3.8-18.7-1.6-3.5-3-7.4-3.3-11.2-.6-7.2,2.2-13.1,9.5-16.6,2.4-1.1,4.8-2.1,7.5-3.3.4,0,.6-.2,1-.3.4-.2.7-.2,1.1-.3.8-.3,1.5-.5,2.3-.8,2.4-.9,4.6-1.6,7-2.4,1.1-.6,2.1-1.1,3.2-1.8.2-.2.3-.2.5-.3.3-.2.5-.3.8-.5,1.3-.7,2.5-1.2,3.9-1.9.4,0,.6-.2,1-.3.3,0,.5-.2.9-.2s1-.2,1.5-.3.9,0,1.4-.2c1.4-.2,2.7-.3,4.1-.5h1.2c1,0,1.8,0,2.8-.3.9-.2,1.7-.2,2.6-.2s1.4,0,2.2-.2h10.9c.7,0,1.3,0,2,.2.6,0,1,.3,1.6.4.5,0,.7,0,1.2.2.5,0,.8.3,1.3.4h.9c.3,0,.5.2.9.4,5.5,1.5,10.8,3,16,4.6.5.2,1.1,1,1.1,1.6.2,3-1.5,4.9-4.3,6-1.4.5-2.8.8-4.9,1.5,1.1,1.6,1.8,3.1,3,4.1,3,2.8,4.9,5.7,4.3,9.8-.2,1.2.9,2.8,1.9,3.8,2.3,2.3,5.1,4.2,7.3,6.6,1.6,1.7,3.7,3.9,3.7,5.9,0,3-3.5,3.9-6.9,4.4.6,1,1.1,1.7,1.4,2.5,1,2.3,2.1,4.3,1.7,7.3-.4,2.6-2.1,6,1,9.3,3.2,3.3.5,6.8-3.5,9.8-5.9,4.5-12.4,8.4-16.5,14.7-3.1,4.7-4.5,5.5-8.4,6.5,0,2.5.3,4.9,2.3,7.1,6.2,6.6,10.6,14.3,14.1,22.5-30.8.2-61.4.2-91.9.2,4.7-16.3,10.8-32.2,18.9-47.9h0l-.3-.3v.2Z"/>
      </g>
      <g class="cls-8">
        <g class="cls-8">
          <text class="cls-6" transform="translate(412.7 214.3)"><tspan x="0" y="0" xml:space="preserve">•  </tspan></text>
        </g>
      </g>
      <g class="cls-8">
        <g class="cls-8">
          <text class="cls-4" transform="translate(428.5 214.3)"><tspan x="0" y="0">Roll back limits on flaring and</tspan></text>
        </g>
      </g>
      <g class="cls-8">
        <g class="cls-8">
          <text class="cls-4" transform="translate(428.5 232.3)"><tspan x="0" y="0">leaks from oil and natural</tspan></text>
        </g>
      </g>
      <g class="cls-8">
        <g class="cls-8">
          <text class="cls-4" transform="translate(428.5 250.3)"><tspan x="0" y="0">gas facilities</tspan></text>
        </g>
      </g>
      <g class="cls-8">
        <g class="cls-8">
          <text class="cls-6" transform="translate(169.9 214.3)"><tspan x="0" y="0" xml:space="preserve">•   </tspan></text>
        </g>
      </g>
      <g class="cls-8">
        <g class="cls-8">
          <text class="cls-11" transform="translate(189.5 214.3)"><tspan x="0" y="0">Keep current regulations to curb</tspan></text>
        </g>
      </g>
      <g class="cls-8">
        <g class="cls-8">
          <text class="cls-11" transform="translate(189.5 232.3)"><tspan x="0" y="0">flaring and leaks from oil and</tspan></text>
        </g>
      </g>
      <g class="cls-8">
        <g class="cls-8">
          <text class="cls-11" transform="translate(189.5 250.3)"><tspan x="0" y="0">natural gas facilities</tspan></text>
        </g>
      </g>
      <g class="cls-8">
        <g class="cls-8">
          <text class="cls-6" transform="translate(412.7 307.4)"><tspan x="0" y="0" xml:space="preserve">•  </tspan></text>
        </g>
      </g>
      <g class="cls-8">
        <g class="cls-8">
          <text class="cls-4" transform="translate(428.5 307.4)"><tspan x="0" y="0">Roll back 2024 carbon emissions</tspan></text>
        </g>
      </g>
      <g class="cls-8">
        <g class="cls-8">
          <text class="cls-4" transform="translate(428.5 325.4)"><tspan x="0" y="0">limits on coal and new natural</tspan></text>
        </g>
      </g>
      <g class="cls-8">
        <g class="cls-8">
          <text class="cls-4" transform="translate(428.5 343.4)"><tspan x="0" y="0">gas plants</tspan></text>
        </g>
      </g>
      <g class="cls-8">
        <g class="cls-8">
          <g class="cls-8">
            <text class="cls-12" transform="translate(412.7 397)"><tspan x="0" y="0" xml:space="preserve">   </tspan></text>
          </g>
        </g>
      </g>
      <g class="cls-8">
        <g class="cls-8">
          <text class="cls-6" transform="translate(412.7 362)"><tspan x="0" y="0" xml:space="preserve">•   </tspan></text>
        </g>
      </g>
      <g class="cls-8">
        <g class="cls-8">
          <text class="cls-4" transform="translate(428.5 362)"><tspan x="0" y="0">Halt plans to curb carbon</tspan></text>
        </g>
      </g>
      <g class="cls-8">
        <g class="cls-8">
          <text class="cls-4" transform="translate(428.5 380)"><tspan x="0" y="0">emissions from existing gas-</tspan></text>
        </g>
      </g>
      <g class="cls-8">
        <g class="cls-8">
          <text class="cls-4" transform="translate(428.5 397.1)"><tspan x="0" y="0">fired plants</tspan></text>
        </g>
      </g>
      <g class="cls-8">
        <g class="cls-8">
          <text class="cls-6" transform="translate(169.9 306.7)"><tspan x="0" y="0" xml:space="preserve">•   </tspan></text>
        </g>
      </g>
      <g class="cls-8">
        <g class="cls-8">
          <text class="cls-4" transform="translate(189.5 306.7)"><tspan x="0" y="0">Enforce 2024 carbon emissions</tspan></text>
        </g>
      </g>
      <g class="cls-8">
        <g class="cls-8">
          <text class="cls-4" transform="translate(189.5 324.7)"><tspan x="0" y="0">limits on existing coal and new</tspan></text>
        </g>
      </g>
      <g class="cls-8">
        <g class="cls-8">
          <text class="cls-4" transform="translate(189.5 342.7)"><tspan x="0" y="0">natural gas plants</tspan></text>
        </g>
      </g>
      <g class="cls-8">
        <g class="cls-8">
          <text class="cls-6" transform="translate(169.9 361.8)"><tspan x="0" y="0">•</tspan></text>
        </g>
      </g>
      <g class="cls-8">
        <g class="cls-8">
          <text class="cls-4" transform="translate(189.5 361.8)"><tspan x="0" y="0">Propose rule curbing carbon</tspan></text>
        </g>
      </g>
      <g class="cls-8">
        <g class="cls-8">
          <text class="cls-4" transform="translate(189.5 379.8)"><tspan x="0" y="0">emissions and pollution from</tspan></text>
        </g>
      </g>
      <g class="cls-8">
        <g class="cls-8">
          <g class="cls-8">
            <text class="cls-4" transform="translate(189.5 397.8)"><tspan x="0" y="0">existing natural gas plants</tspan></text>
          </g>
        </g>
      </g>
      <line class="cls-2" x1="160.1" y1="277.7" x2="648.1" y2="277.7"/>
      <line class="cls-2" x1="148.5" y1="178.9" x2="648.6" y2="178.9"/>
      <line class="cls-2" x1="159.5" y1="518.2" x2="652.1" y2="518.2"/>
      <g class="cls-8">
        <g class="cls-8">
          <text class="cls-6" transform="translate(416.7 546)"><tspan x="0" y="0" xml:space="preserve">•  </tspan></text>
        </g>
      </g>
      <g class="cls-8">
        <g class="cls-8">
          <text class="cls-4" transform="translate(432.5 546)"><tspan x="0" y="0">Reverse strict 2024 tailpipe</tspan></text>
        </g>
      </g>
      <g class="cls-8">
        <g class="cls-8">
          <text class="cls-4" transform="translate(432.5 564)"><tspan x="0" y="0">emission limits</tspan></text>
        </g>
      </g>
      <g class="cls-8">
        <g class="cls-8">
          <text class="cls-6" transform="translate(416.7 582.6)"><tspan x="0" y="0" xml:space="preserve">•  </tspan></text>
        </g>
      </g>
      <g class="cls-8">
        <g class="cls-8">
          <text class="cls-4" transform="translate(432.5 582.6)"><tspan x="0" y="0">Revoke California&apos;s authority to</tspan></text>
        </g>
      </g>
      <g class="cls-8">
        <g class="cls-8">
          <text class="cls-4" transform="translate(432.5 600.6)"><tspan x="0" y="0">set stricter air regulations than</tspan></text>
        </g>
      </g>
      <g class="cls-8">
        <g class="cls-8">
          <text class="cls-4" transform="translate(432.5 617.1)"><tspan x="0" y="0">other states</tspan></text>
        </g>
      </g>
      <g class="cls-8">
        <g class="cls-8">
          <text class="cls-6" transform="translate(416.7 635.7)"><tspan x="0" y="0" xml:space="preserve">•  </tspan></text>
        </g>
      </g>
      <g class="cls-8">
        <g class="cls-8">
          <text class="cls-4" transform="translate(432.5 635.7)"><tspan x="0" y="0">Redirect electric vehicle tax</tspan></text>
        </g>
      </g>
      <g class="cls-8">
        <g class="cls-8">
          <text class="cls-4" transform="translate(432.5 653.7)"><tspan x="0" y="0">credits to real estate and income</tspan></text>
        </g>
      </g>
      <g class="cls-8">
        <g class="cls-8">
          <text class="cls-4" transform="translate(432.5 671.7)"><tspan x="0" y="0">tax breaks</tspan></text>
        </g>
      </g>
      <g class="cls-8">
        <g class="cls-8">
          <text class="cls-6" transform="translate(173.9 545.3)"><tspan x="0" y="0" xml:space="preserve">•  </tspan></text>
        </g>
      </g>
      <g class="cls-8">
        <g class="cls-8">
          <text class="cls-4" transform="translate(189.5 545.3)"><tspan x="0" y="0">Continue existing 2024 tailpipe</tspan></text>
        </g>
      </g>
      <g class="cls-8">
        <g class="cls-8">
          <text class="cls-4" transform="translate(189.5 563.3)"><tspan x="0" y="0">emission limits</tspan></text>
        </g>
      </g>
      <g class="cls-8">
        <g class="cls-8">
          <text class="cls-6" transform="translate(173.9 581.8)"><tspan x="0" y="0" xml:space="preserve">•  </tspan></text>
        </g>
      </g>
      <g class="cls-8">
        <g class="cls-8">
          <text class="cls-4" transform="translate(189.5 581.8)"><tspan x="0" y="0" xml:space="preserve">Defend California’s authority to  </tspan></text>
        </g>
      </g>
      <g class="cls-8">
        <g class="cls-8">
          <text class="cls-4" transform="translate(189.5 599.8)"><tspan x="0" y="0" xml:space="preserve">set stricter air regulations than  </tspan></text>
        </g>
      </g>
      <g class="cls-8">
        <g class="cls-8">
          <text class="cls-4" transform="translate(189.5 617.8)"><tspan x="0" y="0">other states</tspan></text>
        </g>
      </g>
      <g class="cls-8">
        <g class="cls-8">
          <text class="cls-6" transform="translate(173.9 636.4)"><tspan x="0" y="0" xml:space="preserve">•  </tspan></text>
        </g>
      </g>
      <g class="cls-8">
        <g class="cls-8">
          <text class="cls-4" transform="translate(189.5 636.4)"><tspan x="0" y="0" xml:space="preserve">Maintain tax credits for electric  </tspan></text>
        </g>
      </g>
      <g class="cls-8">
        <g class="cls-8">
          <text class="cls-4" transform="translate(189.5 654.4)"><tspan x="0" y="0">vehicles from the Inflation</tspan></text>
        </g>
      </g>
      <g class="cls-8">
        <g class="cls-8">
          <text class="cls-4" transform="translate(189.5 672.4)"><tspan x="0" y="0">Reduction Act</tspan></text>
        </g>
      </g>
      <g>
        <g class="cls-8">
          <g class="cls-8">
            <g class="cls-8">
              <text class="cls-5" transform="translate(36.7 226.1)"><tspan x="0" y="0">Methane</tspan></text>
            </g>
          </g>
        </g>
        <g class="cls-8">
          <g class="cls-8">
            <g class="cls-8">
              <text class="cls-5" transform="translate(21.6 250.1)"><tspan x="0" y="0">emissions</tspan></text>
            </g>
          </g>
        </g>
      </g>
      <g class="cls-8">
        <g class="cls-8">
          <g class="cls-8">
            <text class="cls-5" transform="translate(67.6 322.2)"><tspan x="0" y="0">Power</tspan></text>
          </g>
        </g>
        <g class="cls-8">
          <g class="cls-8">
            <text class="cls-5" transform="translate(84.5 351.2)"><tspan x="0" y="0">plant</tspan></text>
          </g>
        </g>
        <g class="cls-8">
          <g class="cls-8">
            <text class="cls-5" transform="translate(80.9 380.2)"><tspan x="0" y="0">limits</tspan></text>
          </g>
        </g>
      </g>
      <g>
        <g class="cls-8">
          <g class="cls-8">
            <g class="cls-8">
              <text class="cls-5" transform="translate(54.2 566.2)"><tspan x="0" y="0">Vehicle</tspan></text>
            </g>
          </g>
        </g>
        <g class="cls-8">
          <g class="cls-8">
            <g class="cls-8">
              <text class="cls-5" transform="translate(21.6 591.2)"><tspan x="0" y="0">emissions</tspan></text>
            </g>
          </g>
        </g>
      </g>
      <g class="cls-8">
        <g class="cls-8">
          <g class="cls-8">
            <text class="cls-5" transform="translate(56.5 454.8)"><tspan x="0" y="0">Natural</tspan></text>
          </g>
        </g>
        <g class="cls-8">
          <g class="cls-8">
            <text class="cls-5" transform="translate(102.1 479.8)"><tspan x="0" y="0">gas</tspan></text>
          </g>
        </g>
        <g class="cls-8">
          <g class="cls-8">
            <text class="cls-5" transform="translate(51.7 504.8)"><tspan x="0" y="0">exports</tspan></text>
          </g>
        </g>
      </g>
      <g class="cls-8">
        <g class="cls-8">
          <text class="cls-6" transform="translate(416.7 446)"><tspan x="0" y="0" xml:space="preserve">•  </tspan></text>
        </g>
      </g>
      <g class="cls-8">
        <g class="cls-8">
          <text class="cls-4" transform="translate(428.5 446)"><tspan x="0" y="0">End U.S. Energy Department’s</tspan></text>
        </g>
      </g>
      <g class="cls-8">
        <g class="cls-8">
          <text class="cls-4" transform="translate(428.5 464)"><tspan x="0" y="0">environmental review and lift</tspan></text>
        </g>
      </g>
      <g class="cls-8">
        <g class="cls-8">
          <text class="cls-4" transform="translate(428.5 482)"><tspan x="0" y="0">current pause on LNG export</tspan></text>
        </g>
      </g>
      <g class="cls-8">
        <g class="cls-8">
          <text class="cls-4" transform="translate(428.5 500)"><tspan x="0" y="0">permits</tspan></text>
        </g>
      </g>
      <g class="cls-8">
        <g class="cls-8">
          <text class="cls-6" transform="translate(173.9 446)"><tspan x="0" y="0" xml:space="preserve">•  </tspan></text>
        </g>
      </g>
      <g class="cls-8">
        <g class="cls-8">
          <text class="cls-4" transform="translate(189.5 446)"><tspan x="0" y="0">Maintain pause on new permits</tspan></text>
        </g>
      </g>
      <g class="cls-8">
        <g class="cls-8">
          <text class="cls-4" transform="translate(189.5 464)"><tspan x="0" y="0">during U.S. Energy Department’s</tspan></text>
        </g>
      </g>
      <g class="cls-8">
        <g class="cls-8">
          <text class="cls-4" transform="translate(189.5 481)"><tspan x="0" y="0">environmental impact</tspan></text>
        </g>
      </g>
      <g class="cls-8">
        <g class="cls-8">
          <text class="cls-4" transform="translate(189.5 497)"><tspan x="0" y="0">assessment of LNG exports</tspan></text>
        </g>
      </g>
      <line class="cls-2" x1="156.5" y1="418.9" x2="652" y2="418.9"/>
      <g class="cls-8">
        <g class="cls-8">
          <g class="cls-8">
            <text class="cls-9" transform="translate(12.1 114.1)"><tspan x="0" y="0">Fossil</tspan></text>
          </g>
        </g>
        <g class="cls-8">
          <g class="cls-8">
            <text class="cls-9" transform="translate(34.4 158.1)"><tspan x="0" y="0">fuels</tspan></text>
          </g>
        </g>
      </g>
      <g id="ai2html-settings1" class="cls-8">
        <g class="cls-8">
          <g class="cls-8">
            <text class="cls-10" transform="translate(-633 57)"><tspan x="0" y="0">ai2html-settings</tspan></text>
          </g>
        </g>
        <g class="cls-8">
          <g class="cls-8">
            <text class="cls-10" transform="translate(-633 75)"><tspan x="0" y="0">settings_version: 0.56</tspan></text>
          </g>
        </g>
        <g class="cls-8">
          <g class="cls-8">
            <text class="cls-10" transform="translate(-633 93)"><tspan x="0" y="0">image_format: png</tspan></text>
          </g>
        </g>
        <g class="cls-8">
          <g class="cls-8">
            <text class="cls-10" transform="translate(-633 111)"><tspan x="0" y="0">responsiveness: fixed</tspan></text>
          </g>
        </g>
        <g class="cls-8">
          <g class="cls-8">
            <text class="cls-10" transform="translate(-633 129)"><tspan x="0" y="0">output: one-file</tspan></text>
          </g>
        </g>
        <g class="cls-8">
          <g class="cls-8">
            <text class="cls-10" transform="translate(-633 147)"><tspan x="0" y="0">create_promo_images: false</tspan></text>
          </g>
        </g>
        <g class="cls-8">
          <g class="cls-8">
            <text class="cls-10" transform="translate(-633 165)"><tspan x="0" y="0">html_output_path: /ai2html-output/</tspan></text>
          </g>
        </g>
        <g class="cls-8">
          <g class="cls-8">
            <text class="cls-10" transform="translate(-633 183)"><tspan x="0" y="0">html_output_extension: .html</tspan></text>
          </g>
        </g>
        <g class="cls-8">
          <g class="cls-8">
            <text class="cls-10" transform="translate(-633 201)"><tspan x="0" y="0">html_output_path: ../_includes/</tspan></text>
          </g>
        </g>
        <g class="cls-8">
          <g class="cls-8">
            <text class="cls-10" transform="translate(-633 219)"><tspan x="0" y="0">image_output_path: ../images/</tspan></text>
          </g>
        </g>
        <g class="cls-8">
          <g class="cls-8">
            <text class="cls-10" transform="translate(-633 237)"><tspan x="0" y="0">image_source_path: images/</tspan></text>
          </g>
        </g>
        <g class="cls-8">
          <g class="cls-8">
            <text class="cls-10" transform="translate(-633 255)"><tspan x="0" y="0">local_preview_template:</tspan></text>
          </g>
        </g>
        <g class="cls-8">
          <g class="cls-8">
            <text class="cls-10" transform="translate(-633 273)"><tspan x="0" y="0">png_number_of_colors: 128</tspan></text>
          </g>
        </g>
        <g class="cls-8">
          <g class="cls-8">
            <text class="cls-10" transform="translate(-633 291)"><tspan x="0" y="0">jpg_quality: 60</tspan></text>
          </g>
        </g>
        <g class="cls-8">
          <g class="cls-8">
            <text class="cls-10" transform="translate(-633 309)"><tspan x="0" y="0">headline: Cipher</tspan></text>
          </g>
        </g>
        <g class="cls-8">
          <g class="cls-8">
            <text class="cls-10" transform="translate(-633 327)"><tspan x="0" y="0">leadin:</tspan></text>
          </g>
        </g>
        <g class="cls-8">
          <g class="cls-8">
            <text class="cls-10" transform="translate(-633 345)"><tspan x="0" y="0">notes: Notes: Text goes here.</tspan></text>
          </g>
        </g>
        <g class="cls-8">
          <g class="cls-8">
            <text class="cls-10" transform="translate(-633 381)"><tspan x="0" y="0">sources: Source: Cipher/Tory Lysik.</tspan></text>
          </g>
        </g>
        <g class="cls-8">
          <g class="cls-8">
            <text class="cls-10" transform="translate(-633 399)"><tspan x="0" y="0">credit: By ai2html</tspan></text>
          </g>
        </g>
      </g>
      <g class="cls-8">
        <g class="cls-8">
          <g class="cls-8">
            <text class="cls-7" transform="translate(10.5 -16.2)"><tspan x="0" y="0">wide</tspan></text>
          </g>
        </g>
      </g>
      <g>
        <g class="cls-18">
          <path class="cls-17" d="M33,671.3c0-.7-.2-1.5-.7-2-3.1-3.9-8-3.8-9.7-3.8-9.2,0-13,7-13,11.8s.7,5.1,1.9,7.2h0c.3.6.6.9.9,1.3,0,0,6-2.7,6.7-3.1-.2-.3-1.1-2-1.1-6s0-8.8,4.1-9.7c3.5-.7,3.9,1.1,3,2.6-.3.4-1,1-1,2.2,0,2,1.7,3.4,3.9,3.5,2.5.1,4.6-1.6,4.7-3.7v-.2h.2Z"/>
        </g>
        <path class="cls-17" d="M12.3,685.7c2.1,2.5,5.6,4,10.2,4,9.1,0,11.7-5.3,11.7-5.3l-.3-.2c-3,3.9-12.9,4.9-14.8-1.7"/>
        <polygon class="cls-14" points="37 673.8 5.8 688 5.8 690.2 37 675.9 37 673.8"/>
      </g>
    </g>
  </g>
</svg>