<?xml version="1.0" encoding="UTF-8"?>
<svg xmlns="http://www.w3.org/2000/svg" xmlns:xlink="http://www.w3.org/1999/xlink" version="1.1" viewBox="0 0 438 696">
  <defs>
    <style>
      .cls-1, .cls-2 {
        fill: none;
      }

      .cls-3 {
        fill: #1a1a1a;
        font-size: 51px;
      }

      .cls-3, .cls-4 {
        font-family: Georgia-Bold, Georgia;
      }

      .cls-3, .cls-4, .cls-5, .cls-6, .cls-7, .cls-8, .cls-9 {
        isolation: isolate;
      }

      .cls-3, .cls-4, .cls-6 {
        font-weight: 700;
      }

      .cls-4 {
        font-size: 25px;
      }

      .cls-4, .cls-5 {
        fill: #181818;
      }

      .cls-5, .cls-9 {
        font-family: Inter-Regular, Inter;
        font-size: 14px;
      }

      .cls-6 {
        fill: #428ea8;
        font-family: Arial-BoldMT, Arial;
        font-size: 20px;
      }

      .cls-10 {
        fill: #4f6ab1;
      }

      .cls-11 {
        fill: #f8f6f1;
      }

      .cls-2 {
        stroke: #f8f6f1;
        stroke-width: 3px;
      }

      .cls-7 {
        font-family: ArialMT, Arial;
        font-size: 15px;
      }

      .cls-8 {
        fill: #9e1a1a;
        opacity: .3;
      }

      .cls-12 {
        fill: #151c2c;
      }

      .cls-13 {
        clip-path: url(#clippath);
      }

      .cls-9 {
        fill: #202124;
      }
    </style>
    <clipPath id="clippath">
      <rect class="cls-1" x="14.9" y="651.9" width="28.5" height="24.9"/>
    </clipPath>
  </defs>
  <!-- Generator: Adobe Illustrator 28.7.2, SVG Export Plug-In . SVG Version: 1.2.0 Build 154)  -->
  <g>
    <g id="Layer_1">
      <rect class="cls-11" x=".5" y=".2" width="461" height="696"/>
      <rect class="cls-8" x="174.5" y="177.2" width="244" height="510"/>
      <path class="cls-8" d="M262.1,130.2c-7,1.4-13.5,2.3-19.1-3.1,10.7-2.5,12.6-10.1,12.9-18.5.2-6.5-1-12.7-3.8-18.7-1.6-3.5-3-7.4-3.3-11.2-.6-7.2,2.2-13.1,9.5-16.6,2.4-1.1,4.8-2.1,7.5-3.3.4,0,.6-.2,1-.3.4-.2.7-.2,1.1-.3.8-.3,1.5-.5,2.3-.8,2.4-.9,4.6-1.6,7-2.4,1.1-.6,2.1-1.1,3.2-1.8.2-.2.3-.2.5-.3.3-.2.5-.3.8-.5,1.3-.7,2.5-1.2,3.9-1.9.4,0,.6-.2,1-.3.3,0,.5-.2.9-.2s1-.2,1.5-.3.9,0,1.4-.2c1.4-.2,2.7-.3,4.1-.5h1.2c1,0,1.8,0,2.8-.3.9-.2,1.7-.2,2.6-.2s1.4,0,2.2-.2h10.9c.7,0,1.3,0,2,.2.6,0,1,.3,1.6.4.5,0,.7,0,1.2.2.5,0,.8.3,1.3.4h.9c.3,0,.5.2.9.4,5.5,1.5,10.8,3,16,4.6.5.2,1.1,1,1.1,1.6.2,3-1.5,4.9-4.4,6-1.4.5-2.8.8-4.9,1.5,1.1,1.6,1.8,3.1,3,4.1,3,2.8,4.9,5.7,4.3,9.8-.2,1.2.9,2.8,1.9,3.8,2.3,2.3,5.1,4.2,7.3,6.6,1.6,1.7,3.7,3.9,3.6,5.9-.1,3-3.5,3.9-6.9,4.4.6,1,1.1,1.7,1.4,2.5,1,2.3,2.1,4.3,1.7,7.3-.4,2.6-2.1,6,1,9.3s.5,6.8-3.5,9.8c-5.9,4.5-12.4,8.4-16.5,14.7-3.1,4.7-4.5,5.5-8.4,6.5,0,2.5.3,4.9,2.3,7.1,6.2,6.6,10.6,14.3,14.1,22.5-30.8.2-61.4.2-91.9.2,4.7-16.3,10.8-32.2,18.9-47.9h0v-.2.2Z"/>
      <text class="cls-5" transform="translate(182.7 212.3)"><tspan x="0" y="0" xml:space="preserve">•  </tspan></text>
      <text class="cls-9" transform="translate(197.5 212.3)"><tspan x="0" y="0">Roll back limits on flaring and</tspan></text>
      <text class="cls-9" transform="translate(197.5 232.3)"><tspan x="0" y="0">leaks from oil and natural</tspan></text>
      <text class="cls-9" transform="translate(197.5 250.3)"><tspan x="0" y="0">gas facilities</tspan></text>
      <text class="cls-5" transform="translate(182.7 305.4)"><tspan x="0" y="0" xml:space="preserve">•  </tspan></text>
      <text class="cls-9" transform="translate(197.5 305.4)"><tspan x="0" y="0">Roll back 2024 carbon emissions</tspan></text>
      <text class="cls-9" transform="translate(197.5 323.4)"><tspan x="0" y="0">limits on coal and new natural</tspan></text>
      <text class="cls-9" transform="translate(197.5 341.4)"><tspan x="0" y="0">gas plants</tspan></text>
      <text class="cls-9" transform="translate(182.7 395)"><tspan x="0" y="0" xml:space="preserve">   </tspan></text>
      <text class="cls-5" transform="translate(182.7 360)"><tspan x="0" y="0" xml:space="preserve">•   </tspan></text>
      <text class="cls-5" transform="translate(182.7 444.2)"><tspan x="0" y="0" xml:space="preserve">•   </tspan></text>
      <text class="cls-9" transform="translate(197.5 360)"><tspan x="0" y="0">Halt plans to curb carbon</tspan></text>
      <text class="cls-9" transform="translate(197.5 379)"><tspan x="0" y="0">emissions from existing gas-</tspan></text>
      <text class="cls-9" transform="translate(197.5 396.1)"><tspan x="0" y="0">fired plants</tspan></text>
      <line class="cls-2" x1="149.9" y1="275.7" x2="419.9" y2="275.7"/>
      <line class="cls-2" x1="143.5" y1="176.9" x2="420.2" y2="176.9"/>
      <line class="cls-2" x1="149.6" y1="516.2" x2="422.1" y2="516.2"/>
      <text class="cls-5" transform="translate(182.7 544)"><tspan x="0" y="0" xml:space="preserve">•  </tspan></text>
      <text class="cls-9" transform="translate(197.5 544)"><tspan x="0" y="0">Reverse strict 2024 tailpipe</tspan></text>
      <text class="cls-9" transform="translate(197.5 562)"><tspan x="0" y="0">emission limits</tspan></text>
      <text class="cls-5" transform="translate(182.7 580.6)"><tspan x="0" y="0" xml:space="preserve">•  </tspan></text>
      <text class="cls-9" transform="translate(197.5 580.6)"><tspan x="0" y="0">Revoke California&apos;s authority to</tspan></text>
      <text class="cls-9" transform="translate(197.5 599.6)"><tspan x="0" y="0">set stricter air regulations than</tspan></text>
      <text class="cls-9" transform="translate(197.5 616.1)"><tspan x="0" y="0">other states</tspan></text>
      <text class="cls-5" transform="translate(182.7 633.7)"><tspan x="0" y="0" xml:space="preserve">•  </tspan></text>
      <text class="cls-9" transform="translate(197.5 633.7)"><tspan x="0" y="0">Redirect electric vehicle tax</tspan></text>
      <text class="cls-9" transform="translate(197.5 652.7)"><tspan x="0" y="0">credits to real estate and income</tspan></text>
      <text class="cls-9" transform="translate(197.5 670.7)"><tspan x="0" y="0">tax breaks</tspan></text>
      <text class="cls-4" transform="translate(52.5 226.1)"><tspan x="0" y="0">Methane</tspan></text>
      <text class="cls-4" transform="translate(36.8 250.1)"><tspan x="0" y="0">emissions</tspan></text>
      <text class="cls-4" transform="translate(83.5 322.2)"><tspan x="0" y="0">Power</tspan></text>
      <text class="cls-4" transform="translate(98.6 351.2)"><tspan x="0" y="0">plant</tspan></text>
      <text class="cls-4" transform="translate(91.3 380.2)"><tspan x="0" y="0">limits</tspan></text>
      <text class="cls-4" transform="translate(70.4 566.2)"><tspan x="0" y="0">Vehicle</tspan></text>
      <text class="cls-4" transform="translate(36.8 591.2)"><tspan x="0" y="0">emissions</tspan></text>
      <text class="cls-4" transform="translate(66.5 454.8)"><tspan x="0" y="0">Natural</tspan></text>
      <text class="cls-4" transform="translate(123.6 479.8)"><tspan x="0" y="0">gas</tspan></text>
      <text class="cls-4" transform="translate(68.7 504.8)"><tspan x="0" y="0">exports</tspan></text>
      <text class="cls-9" transform="translate(197.5 444)"><tspan x="0" y="0">End U.S. Energy Department’s</tspan></text>
      <text class="cls-9" transform="translate(197.5 463)"><tspan x="0" y="0">environmental review and lift</tspan></text>
      <text class="cls-9" transform="translate(197.5 481)"><tspan x="0" y="0">current pause on LNG export</tspan></text>
      <text class="cls-9" transform="translate(197.5 499)"><tspan x="0" y="0">permits</tspan></text>
      <line class="cls-2" x1="147.9" y1="416.9" x2="422.1" y2="416.9"/>
      <text class="cls-3" transform="translate(12.1 114.1)"><tspan x="0" y="0">Fossil</tspan></text>
      <text class="cls-3" transform="translate(34.4 158.1)"><tspan x="0" y="0">fuels</tspan></text>
      <text class="cls-7" transform="translate(-633 57)"><tspan x="0" y="0">ai2html-settings</tspan></text>
      <text class="cls-7" transform="translate(-633 75)"><tspan x="0" y="0">settings_version: 0.56</tspan></text>
      <text class="cls-7" transform="translate(-633 93)"><tspan x="0" y="0">image_format: png</tspan></text>
      <text class="cls-7" transform="translate(-633 111)"><tspan x="0" y="0">responsiveness: fixed</tspan></text>
      <text class="cls-7" transform="translate(-633 129)"><tspan x="0" y="0">output: one-file</tspan></text>
      <text class="cls-7" transform="translate(-633 147)"><tspan x="0" y="0">create_promo_images: false</tspan></text>
      <text class="cls-7" transform="translate(-633 165)"><tspan x="0" y="0">html_output_path: /ai2html-output/</tspan></text>
      <text class="cls-7" transform="translate(-633 183)"><tspan x="0" y="0">html_output_extension: .html</tspan></text>
      <text class="cls-7" transform="translate(-633 201)"><tspan x="0" y="0">html_output_path: ../_includes/</tspan></text>
      <text class="cls-7" transform="translate(-633 219)"><tspan x="0" y="0">image_output_path: ../images/</tspan></text>
      <text class="cls-7" transform="translate(-633 237)"><tspan x="0" y="0">image_source_path: images/</tspan></text>
      <text class="cls-7" transform="translate(-633 255)"><tspan x="0" y="0">local_preview_template:</tspan></text>
      <text class="cls-7" transform="translate(-633 273)"><tspan x="0" y="0">png_number_of_colors: 128</tspan></text>
      <text class="cls-7" transform="translate(-633 291)"><tspan x="0" y="0">jpg_quality: 60</tspan></text>
      <text class="cls-7" transform="translate(-633 309)"><tspan x="0" y="0">headline: Cipher</tspan></text>
      <text class="cls-7" transform="translate(-633 327)"><tspan x="0" y="0">leadin:</tspan></text>
      <text class="cls-7" transform="translate(-633 345)"><tspan x="0" y="0">notes: Notes: Text goes here.</tspan></text>
      <text class="cls-7" transform="translate(-633 381)"><tspan x="0" y="0">sources: Source: Cipher/Tory Lysik.</tspan></text>
      <text class="cls-7" transform="translate(-633 399)"><tspan x="0" y="0">credit: By ai2html</tspan></text>
      <text class="cls-6" transform="translate(10.5 -16.2)"><tspan x="0" y="0">wide</tspan></text>
      <g class="cls-13">
        <path class="cls-12" d="M43.1,659.1c0-.8-.3-1.7-.8-2.4-3.7-4.7-9.6-4.5-11.6-4.5-10.9,0-15.4,8.4-15.4,14.1s.8,6.1,2.3,8.5h0c.4.7.7,1.1,1.1,1.6,0,0,7.2-3.2,8-3.7-.3-.4-1.3-2.4-1.3-7.2s0-10.5,4.9-11.6c4.1-.8,4.7,1.3,3.6,3.1-.4.5-1.2,1.2-1.2,2.7,0,2.4,2,4,4.7,4.1,2.9,0,5.5-1.9,5.6-4.4v-.3h.3-.2Z"/>
      </g>
      <path class="cls-12" d="M18.5,676.3c2.5,2.9,6.7,4.8,12.1,4.8,10.8,0,14-6.3,14-6.3l-.4-.3c-3.6,4.7-15.3,5.9-17.6-2"/>
      <polygon class="cls-10" points="47.9 662 10.8 678.9 10.8 681.6 47.9 664.6 47.9 662"/>
    </g>
  </g>
</svg>