<?xml version="1.0" encoding="UTF-8"?>
<svg xmlns="http://www.w3.org/2000/svg" xmlns:xlink="http://www.w3.org/1999/xlink" version="1.1" viewBox="0 0 298 551">
  <defs>
    <style>
      .cls-1, .cls-2 {
        fill: none;
      }

      .cls-3 {
        fill: #4f6ab1;
      }

      .cls-4 {
        fill: #f8f6f1;
      }

      .cls-5 {
        font-size: 17px;
      }

      .cls-5, .cls-6, .cls-7, .cls-8, .cls-9, .cls-10 {
        isolation: isolate;
      }

      .cls-5, .cls-8 {
        font-family: Georgia-Bold, Georgia;
        font-weight: 700;
      }

      .cls-5, .cls-10 {
        fill: #181818;
      }

      .cls-2 {
        stroke: #f8f6f1;
        stroke-width: 3px;
      }

      .cls-7 {
        font-size: 15px;
      }

      .cls-7, .cls-10 {
        font-family: ArialMT, Arial;
      }

      .cls-8 {
        fill: #1a1a1a;
        font-size: 30px;
      }

      .cls-9 {
        fill: #9e1a1a;
        opacity: .3;
      }

      .cls-11 {
        fill: #151c2c;
      }

      .cls-12 {
        clip-path: url(#clippath);
      }

      .cls-10 {
        font-size: 9px;
      }
    </style>
    <clipPath id="clippath">
      <rect class="cls-1" x="9.2" y="523.2" width="21.4" height="18.7"/>
    </clipPath>
  </defs>
  <!-- Generator: Adobe Illustrator 28.7.2, SVG Export Plug-In . SVG Version: 1.2.0 Build 154)  -->
  <g>
    <g id="Layer_1">
      <g class="cls-6">
        <g class="cls-6">
          <text class="cls-7" transform="translate(-3076.5 483.7)"><tspan x="0" y="0">ai2html-settings</tspan></text>
        </g>
      </g>
      <g class="cls-6">
        <g class="cls-6">
          <text class="cls-7" transform="translate(-3076.5 501.7)"><tspan x="0" y="0">settings_version: 0.56</tspan></text>
        </g>
      </g>
      <g class="cls-6">
        <g class="cls-6">
          <text class="cls-7" transform="translate(-3076.5 519.7)"><tspan x="0" y="0">image_format: png</tspan></text>
        </g>
      </g>
      <g class="cls-6">
        <g class="cls-6">
          <text class="cls-7" transform="translate(-3076.5 537.7)"><tspan x="0" y="0">responsiveness: fixed</tspan></text>
        </g>
      </g>
      <g class="cls-6">
        <g class="cls-6">
          <text class="cls-7" transform="translate(-3076.5 555.7)"><tspan x="0" y="0">output: one-file</tspan></text>
        </g>
      </g>
      <g class="cls-6">
        <g class="cls-6">
          <text class="cls-7" transform="translate(-3076.5 573.7)"><tspan x="0" y="0">create_promo_images: false</tspan></text>
        </g>
      </g>
      <g class="cls-6">
        <g class="cls-6">
          <text class="cls-7" transform="translate(-3076.5 591.7)"><tspan x="0" y="0">html_output_path: /ai2html-output/</tspan></text>
        </g>
      </g>
      <g class="cls-6">
        <g class="cls-6">
          <text class="cls-7" transform="translate(-3076.5 609.7)"><tspan x="0" y="0">html_output_extension: .html</tspan></text>
        </g>
      </g>
      <g class="cls-6">
        <g class="cls-6">
          <text class="cls-7" transform="translate(-3076.5 627.7)"><tspan x="0" y="0">html_output_path: ../_includes/</tspan></text>
        </g>
      </g>
      <g class="cls-6">
        <g class="cls-6">
          <text class="cls-7" transform="translate(-3076.5 645.7)"><tspan x="0" y="0">image_output_path: ../images/</tspan></text>
        </g>
      </g>
      <g class="cls-6">
        <g class="cls-6">
          <text class="cls-7" transform="translate(-3076.5 663.7)"><tspan x="0" y="0">image_source_path: images/</tspan></text>
        </g>
      </g>
      <g class="cls-6">
        <g class="cls-6">
          <text class="cls-7" transform="translate(-3076.5 681.7)"><tspan x="0" y="0">local_preview_template:</tspan></text>
        </g>
      </g>
      <g class="cls-6">
        <g class="cls-6">
          <text class="cls-7" transform="translate(-3076.5 699.7)"><tspan x="0" y="0">png_number_of_colors: 128</tspan></text>
        </g>
      </g>
      <g class="cls-6">
        <g class="cls-6">
          <text class="cls-7" transform="translate(-3076.5 717.7)"><tspan x="0" y="0">jpg_quality: 60</tspan></text>
        </g>
      </g>
      <g class="cls-6">
        <g class="cls-6">
          <text class="cls-7" transform="translate(-3076.5 735.7)"><tspan x="0" y="0">headline: Ai Graphic Headline</tspan></text>
        </g>
      </g>
      <g class="cls-6">
        <g class="cls-6">
          <text class="cls-7" transform="translate(-3076.5 753.7)"><tspan x="0" y="0">leadin: Introductory text here.</tspan></text>
        </g>
      </g>
      <g class="cls-6">
        <g class="cls-6">
          <text class="cls-7" transform="translate(-3076.5 771.7)"><tspan x="0" y="0">notes: Notes: Text goes here.</tspan></text>
        </g>
      </g>
      <g class="cls-6">
        <g class="cls-6">
          <text class="cls-7" transform="translate(-3076.5 807.7)"><tspan x="0" y="0">sources: Source: Cipher/Tory Lysik.</tspan></text>
        </g>
      </g>
      <g class="cls-6">
        <g class="cls-6">
          <text class="cls-7" transform="translate(-3076.5 825.7)"><tspan x="0" y="0">credit: By ai2html</tspan></text>
        </g>
      </g>
      <rect class="cls-4" x="-.9" y="-3.8" width="297.9" height="555.8"/>
      <rect class="cls-9" x="122.4" y="94.8" width="164.7" height="447.4"/>
      <path class="cls-9" d="M184.1,63.4c-4.6.9-8.9,1.5-12.6-2,7-1.7,8.3-6.6,8.5-12,.2-4.2-.6-8.3-2.5-12.2-1.1-2.3-2-4.8-2.2-7.3-.4-4.7,1.4-8.6,6.2-10.8,1.6-.7,3.2-1.4,4.9-2.1.3,0,.4-.1.6-.2.2-.1.4-.1.7-.2.5-.2,1-.3,1.5-.5,1.6-.6,3-1,4.6-1.6.8-.4,1.4-.7,2.1-1.1.1-.1.2-.1.3-.2.2-.1.3-.2.5-.3.9-.4,1.7-.8,2.6-1.2.3,0,.4-.1.6-.2.2,0,.3-.1.6-.1s.6-.1,1-.2c.4,0,.6,0,.9-.1.9-.1,1.8-.2,2.7-.3h.8c.6,0,1.2,0,1.8-.2.6-.1,1.1-.1,1.7-.2.6,0,.9,0,1.5-.1h7.2c.5,0,.8,0,1.3.1.4,0,.6.2,1.1.2s.5,0,.8.1c.3,0,.5.2.8.2h.6c.2,0,.4.2.6.2,3.6,1,7.1,2,10.5,3,.3.1.7.7.7,1,.1,2-1,3.2-2.9,3.9-.9.4-1.9.5-3.2,1,.7,1,1.2,2,1.9,2.7,1.9,1.8,3.2,3.7,2.8,6.4-.1.8.6,1.9,1.3,2.5,1.5,1.5,3.4,2.7,4.8,4.3,1.1,1.1,2.5,2.6,2.4,3.8,0,2-2.3,2.5-4.6,2.9.4.6.7,1.1.9,1.6.6,1.5,1.4,2.8,1.1,4.8-.2,1.7-1.4,3.9.7,6.1,2.1,2.2.3,4.4-2.3,6.4-3.9,2.9-8.2,5.5-10.9,9.6-2,3.1-2.9,3.6-5.5,4.2,0,1.7.2,3.2,1.5,4.6,4.1,4.3,7,9.3,9.3,14.7h-60.6c3.1-10.7,7.1-21.1,12.4-31.3h.5,0Z"/>
      <line class="cls-2" x1="49.9" y1="95" x2="287.2" y2="95"/>
      <g class="cls-6">
        <text class="cls-5" transform="translate(39 119.1)"><tspan x="0" y="0">Inflation</tspan></text>
      </g>
      <g class="cls-6">
        <text class="cls-5" transform="translate(25.9 134.8)"><tspan x="0" y="0">Reduction</tspan></text>
      </g>
      <g class="cls-6">
        <text class="cls-5" transform="translate(87.6 152.5)"><tspan x="0" y="0">Act</tspan></text>
      </g>
      <g class="cls-6">
        <text class="cls-10" transform="translate(129.4 112.7)"><tspan x="0" y="0" xml:space="preserve">•  End solar and wind tax credits</tspan></text>
      </g>
      <g class="cls-6">
        <text class="cls-10" transform="translate(129.4 123.2)"><tspan x="0" y="0" xml:space="preserve">•  Broaden hydrogen tax credit</tspan></text>
      </g>
      <g class="cls-6">
        <text class="cls-10" transform="translate(137.2 134.6)"><tspan x="0" y="0">rule to encompass fossil</tspan></text>
      </g>
      <g class="cls-6">
        <text class="cls-10" transform="translate(137.2 145.1)"><tspan x="0" y="0">fuel sources</tspan></text>
      </g>
      <g class="cls-6">
        <text class="cls-10" transform="translate(129.4 155.5)"><tspan x="0" y="0" xml:space="preserve">•  Eliminate Office of Clean</tspan></text>
      </g>
      <g class="cls-6">
        <text class="cls-10" transform="translate(137.2 166.5)"><tspan x="0" y="0">Energy Demonstrations</tspan></text>
      </g>
      <line class="cls-2" x1="109.9" y1="178.2" x2="287.4" y2="178.2"/>
      <g class="cls-6">
        <text class="cls-5" transform="translate(51.6 208.9)"><tspan x="0" y="0">Carbon</tspan></text>
      </g>
      <g class="cls-6">
        <text class="cls-5" transform="translate(71.4 224.5)"><tspan x="0" y="0">tax &amp;</tspan></text>
      </g>
      <g class="cls-6">
        <text class="cls-5" transform="translate(53.6 242.2)"><tspan x="0" y="0">pricing</tspan></text>
      </g>
      <g class="cls-6">
        <text class="cls-10" transform="translate(129.4 195.9)"><tspan x="0" y="0" xml:space="preserve">•  Oppose taxes on domestic </tspan></text>
      </g>
      <g class="cls-6">
        <text class="cls-10" transform="translate(137.2 206.7)"><tspan x="0" y="0">energy-intensive goods</tspan></text>
      </g>
      <line class="cls-2" x1="117.2" y1="397.9" x2="287.9" y2="397.9"/>
      <g class="cls-6">
        <text class="cls-5" transform="translate(48.3 420.7)"><tspan x="0" y="0">Climate</tspan></text>
      </g>
      <g class="cls-6">
        <text class="cls-5" transform="translate(58.6 438.4)"><tspan x="0" y="0">justice</tspan></text>
      </g>
      <g class="cls-6">
        <g class="cls-6">
          <text class="cls-10" transform="translate(129.4 415.6)"><tspan x="0" y="0" xml:space="preserve">•  Eliminate Biden-era </tspan></text>
        </g>
      </g>
      <g class="cls-6">
        <g class="cls-6">
          <text class="cls-10" transform="translate(137.2 426.4)"><tspan x="0" y="0">environmental justice initiative</tspan></text>
        </g>
      </g>
      <g class="cls-6">
        <g class="cls-6">
          <text class="cls-10" transform="translate(137.2 437.9)"><tspan x="0" y="0">directing 40% of federal</tspan></text>
        </g>
      </g>
      <g class="cls-6">
        <g class="cls-6">
          <text class="cls-10" transform="translate(137.2 448.3)"><tspan x="0" y="0">spending to disadvantaged</tspan></text>
        </g>
      </g>
      <g class="cls-6">
        <g class="cls-6">
          <text class="cls-10" transform="translate(137.2 458.8)"><tspan x="0" y="0">communities</tspan></text>
        </g>
      </g>
      <g class="cls-6">
        <text class="cls-5" transform="translate(48.3 352.8)"><tspan x="0" y="0">Climate</tspan></text>
      </g>
      <g class="cls-6">
        <text class="cls-5" transform="translate(81.5 370.4)"><tspan x="0" y="0">risk</tspan></text>
      </g>
      <g class="cls-6">
        <text class="cls-10" transform="translate(129.4 344.4)"><tspan x="0" y="0" xml:space="preserve">•  Withdraw Biden-era rule </tspan></text>
      </g>
      <g class="cls-6">
        <text class="cls-10" transform="translate(137.2 355.6)"><tspan x="0" y="0">requiring large public</tspan></text>
      </g>
      <g class="cls-6">
        <text class="cls-10" transform="translate(137.2 366)"><tspan x="0" y="0">companies to disclose their</tspan></text>
      </g>
      <g class="cls-6">
        <text class="cls-10" transform="translate(137.2 376.5)"><tspan x="0" y="0">risks from climate change</tspan></text>
      </g>
      <line class="cls-2" x1="115.1" y1="326.7" x2="285.9" y2="326.7"/>
      <g class="cls-6">
        <text class="cls-5" transform="translate(48.3 299.6)"><tspan x="0" y="0">Climate</tspan></text>
      </g>
      <g class="cls-6">
        <text class="cls-5" transform="translate(24.8 315.2)"><tspan x="0" y="0">diplomacy</tspan></text>
      </g>
      <g class="cls-6">
        <text class="cls-10" transform="translate(129.4 293.1)"><tspan x="0" y="0" xml:space="preserve">•  Step back from global climate </tspan></text>
      </g>
      <g class="cls-6">
        <text class="cls-10" transform="translate(137.2 304.6)"><tspan x="0" y="0">talks, block U.S. contribution</tspan></text>
      </g>
      <g class="cls-6">
        <text class="cls-10" transform="translate(137.2 315)"><tspan x="0" y="0">to UN’s Green Climate Fund</tspan></text>
      </g>
      <line class="cls-2" x1="116.9" y1="275.5" x2="287.6" y2="275.5"/>
      <g class="cls-6">
        <g class="cls-6">
          <text class="cls-10" transform="translate(137.2 519.9)"><tspan x="0" y="0">American energy independence,</tspan></text>
        </g>
      </g>
      <g class="cls-6">
        <g class="cls-6">
          <text class="cls-10" transform="translate(137.2 531.3)"><tspan x="0" y="0">like nuclear, oil and gas</tspan></text>
        </g>
      </g>
      <g class="cls-6">
        <text class="cls-5" transform="translate(71.9 491)"><tspan x="0" y="0">Loan</tspan></text>
      </g>
      <g class="cls-6">
        <text class="cls-5" transform="translate(38.6 510.6)"><tspan x="0" y="0">Program</tspan></text>
      </g>
      <g class="cls-6">
        <text class="cls-5" transform="translate(64.2 530.2)"><tspan x="0" y="0">Office</tspan></text>
      </g>
      <g class="cls-6">
        <text class="cls-10" transform="translate(129.4 487.2)"><tspan x="0" y="0" xml:space="preserve">•  Freeze activities, or possibly  </tspan></text>
      </g>
      <g class="cls-6">
        <text class="cls-10" transform="translate(137.2 498)"><tspan x="0" y="0">redirect loan activity to</tspan></text>
      </g>
      <g class="cls-6">
        <text class="cls-10" transform="translate(137.2 509.4)"><tspan x="0" y="0">technologies boosting</tspan></text>
      </g>
      <line class="cls-2" x1="118.4" y1="469.5" x2="289.1" y2="469.5"/>
      <g class="cls-6">
        <text class="cls-8" transform="translate(30.4 29.4)"><tspan x="0" y="0">Cross</tspan></text>
      </g>
      <g class="cls-6">
        <text class="cls-8" transform="translate(9.2 58.1)"><tspan x="0" y="0">cutting</tspan></text>
      </g>
      <g class="cls-6">
        <text class="cls-8" transform="translate(23.4 86.9)"><tspan x="0" y="0">issues</tspan></text>
      </g>
      <g class="cls-6">
        <text class="cls-10" transform="translate(129.4 217.8)"><tspan x="0" y="0" xml:space="preserve">•  Impose carbon tax on Chinese</tspan></text>
      </g>
      <g class="cls-6">
        <text class="cls-10" transform="translate(137.2 227.8)"><tspan x="0" y="0">imports</tspan></text>
      </g>
      <g class="cls-6">
        <text class="cls-10" transform="translate(137.2 250.6)"><tspan x="0" y="0">carbon pollution in federal</tspan></text>
      </g>
      <g class="cls-6">
        <text class="cls-10" transform="translate(137.2 261.6)"><tspan x="0" y="0">rulemaking</tspan></text>
      </g>
      <g class="cls-6">
        <text class="cls-10" transform="translate(129.4 240.2)"><tspan x="0" y="0" xml:space="preserve">•  Stop assessing impacts of </tspan></text>
      </g>
      <g class="cls-12">
        <path class="cls-11" d="M30.4,528.6c0-.6-.2-1.3-.6-1.8-2.8-3.5-7.2-3.4-8.7-3.4-8.2,0-11.6,6.3-11.6,10.6s.6,4.6,1.7,6.4h0c.3.5.5.8.8,1.2,0,0,5.4-2.4,6-2.8-.2-.3-1-1.8-1-5.4s0-7.9,3.7-8.7c3.1-.6,3.5,1,2.7,2.3-.3.4-.9.9-.9,2,0,1.8,1.5,3,3.5,3.1,2.2,0,4.1-1.4,4.2-3.3v-.2h.2,0Z"/>
      </g>
      <path class="cls-11" d="M11.9,541.5c1.9,2.2,5,3.6,9.1,3.6,8.1,0,10.5-4.7,10.5-4.7l-.3-.2c-2.7,3.5-11.5,4.4-13.2-1.5"/>
      <polygon class="cls-3" points="34 530.8 6.1 543.5 6.1 545.5 34 532.7 34 530.8"/>
    </g>
  </g>
</svg>