<?xml version="1.0" encoding="UTF-8"?>
<svg xmlns="http://www.w3.org/2000/svg" xmlns:xlink="http://www.w3.org/1999/xlink" version="1.1" viewBox="0 0 314 355">
  <defs>
    <style>
      .cls-1, .cls-2 {
        fill: none;
      }

      .cls-3 {
        fill: #428ea8;
        font-family: Arial-BoldMT, Arial;
        font-size: 20px;
      }

      .cls-3, .cls-4, .cls-5, .cls-6, .cls-7, .cls-8, .cls-9 {
        isolation: isolate;
      }

      .cls-3, .cls-8, .cls-9 {
        font-weight: 700;
      }

      .cls-2 {
        stroke: #f8f6f0;
        stroke-width: 3px;
      }

      .cls-10 {
        fill: #4f6ab1;
      }

      .cls-11 {
        fill: #f8f6f1;
      }

      .cls-5 {
        font-size: 9.6px;
      }

      .cls-5, .cls-6 {
        font-family: ArialMT, Arial;
      }

      .cls-5, .cls-9 {
        fill: #181818;
      }

      .cls-6 {
        font-size: 15px;
      }

      .cls-7 {
        fill: #9e1a1a;
        opacity: .3;
      }

      .cls-8 {
        fill: #1a1a1a;
        font-size: 33px;
      }

      .cls-8, .cls-9 {
        font-family: Georgia-Bold, Georgia;
      }

      .cls-12 {
        fill: #151c2c;
      }

      .cls-9 {
        font-size: 18px;
      }

      .cls-13 {
        clip-path: url(#clippath);
      }
    </style>
    <clipPath id="clippath">
      <rect class="cls-1" x="11" y="323.8" width="22.4" height="19.2"/>
    </clipPath>
  </defs>
  <!-- Generator: Adobe Illustrator 28.7.2, SVG Export Plug-In . SVG Version: 1.2.0 Build 154)  -->
  <g>
    <g id="Layer_1">
      <g class="cls-4">
        <text class="cls-6" transform="translate(-2832.5 67.7)"><tspan x="0" y="0">ai2html-settings</tspan></text>
      </g>
      <g class="cls-4">
        <text class="cls-6" transform="translate(-2832.5 85.7)"><tspan x="0" y="0">settings_version: 0.56</tspan></text>
      </g>
      <g class="cls-4">
        <text class="cls-6" transform="translate(-2832.5 103.7)"><tspan x="0" y="0">image_format: png</tspan></text>
      </g>
      <g class="cls-4">
        <text class="cls-6" transform="translate(-2832.5 121.7)"><tspan x="0" y="0">responsiveness: fixed</tspan></text>
      </g>
      <g class="cls-4">
        <text class="cls-6" transform="translate(-2832.5 139.7)"><tspan x="0" y="0">output: one-file</tspan></text>
      </g>
      <g class="cls-4">
        <text class="cls-6" transform="translate(-2832.5 157.7)"><tspan x="0" y="0">create_promo_images: false</tspan></text>
      </g>
      <g class="cls-4">
        <text class="cls-6" transform="translate(-2832.5 175.7)"><tspan x="0" y="0">html_output_path: /ai2html-output/</tspan></text>
      </g>
      <g class="cls-4">
        <text class="cls-6" transform="translate(-2832.5 193.7)"><tspan x="0" y="0">html_output_extension: .html</tspan></text>
      </g>
      <g class="cls-4">
        <text class="cls-6" transform="translate(-2832.5 211.7)"><tspan x="0" y="0">html_output_path: ../_includes/</tspan></text>
      </g>
      <g class="cls-4">
        <text class="cls-6" transform="translate(-2832.5 229.7)"><tspan x="0" y="0">image_output_path: ../images/</tspan></text>
      </g>
      <g class="cls-4">
        <text class="cls-6" transform="translate(-2832.5 247.7)"><tspan x="0" y="0">image_source_path: images/</tspan></text>
      </g>
      <g class="cls-4">
        <text class="cls-6" transform="translate(-2832.5 265.7)"><tspan x="0" y="0">local_preview_template:</tspan></text>
      </g>
      <g class="cls-4">
        <text class="cls-6" transform="translate(-2832.5 283.7)"><tspan x="0" y="0">png_number_of_colors: 128</tspan></text>
      </g>
      <g class="cls-4">
        <text class="cls-6" transform="translate(-2832.5 301.7)"><tspan x="0" y="0">jpg_quality: 60</tspan></text>
      </g>
      <g class="cls-4">
        <text class="cls-6" transform="translate(-2832.5 319.7)"><tspan x="0" y="0">headline: Ai Graphic Headline</tspan></text>
      </g>
      <g class="cls-4">
        <text class="cls-6" transform="translate(-2832.5 337.7)"><tspan x="0" y="0">leadin: Introductory text here.</tspan></text>
      </g>
      <g class="cls-4">
        <text class="cls-6" transform="translate(-2832.5 355.7)"><tspan x="0" y="0">notes: Notes: Text goes here.</tspan></text>
      </g>
      <g class="cls-4">
        <text class="cls-6" transform="translate(-2832.5 391.7)"><tspan x="0" y="0">sources: Source: Cipher/Tory Lysik.</tspan></text>
      </g>
      <g class="cls-4">
        <text class="cls-6" transform="translate(-2832.5 409.7)"><tspan x="0" y="0">credit: By ai2html</tspan></text>
      </g>
      <g class="cls-4">
        <text class="cls-3" transform="translate(-.3 -11.4)"><tspan x="0" y="0">mobile</tspan></text>
      </g>
      <path class="cls-1" d="M-2391.2,179.3"/>
      <path class="cls-1" d="M-2391.2,329.3"/>
      <rect class="cls-11" x="-2.3" y="-6.6" width="322.4" height="363.6"/>
      <text class="cls-9" transform="translate(45 197.8)"><tspan x="0" y="0">Nuclear</tspan></text>
      <text class="cls-9" transform="translate(69 288.5)"><tspan x="0" y="0">Solar</tspan></text>
      <g class="cls-4">
        <text class="cls-9" transform="translate(36.9 235.6)"><tspan x="0" y="0">Offshore</tspan></text>
      </g>
      <g class="cls-4">
        <text class="cls-9" transform="translate(72.2 254.1)"><tspan x="0" y="0">wind</tspan></text>
      </g>
      <path class="cls-1" d="M-48,139.4"/>
      <path class="cls-1" d="M-48,242.5"/>
      <path class="cls-1" d="M124.6,284.4"/>
      <path class="cls-1" d="M290.8,208.1"/>
      <path class="cls-1" d="M290.8,208.1"/>
      <path class="cls-1" d="M290.8,259.7"/>
      <path class="cls-1" d="M290.8,259.7"/>
      <text class="cls-9" transform="translate(26 139.4)"><tspan x="0" y="0">Hydrogen</tspan></text>
      <path class="cls-1" d="M304.6,102.5"/>
      <path class="cls-1" d="M304.6,102.5"/>
      <path class="cls-1" d="M291.5,254.5"/>
      <path class="cls-1" d="M291.5,254.5"/>
      <text class="cls-8" transform="translate(25.6 58.4)"><tspan x="0" y="0">Clean</tspan></text>
      <text class="cls-8" transform="translate(5.8 88.6)"><tspan x="0" y="0">energy</tspan></text>
      <rect class="cls-7" x="126" y="96.6" width="180.7" height="219.3"/>
      <path class="cls-7" d="M192.6,64.2c-4.8.9-9.3,1.6-13.2-2.1,7.4-1.7,8.7-6.9,8.9-12.7.2-4.4-.7-8.7-2.6-12.8-1.1-2.4-2.1-5.1-2.3-7.7-.4-4.9,1.5-9,6.5-11.4,1.6-.8,3.3-1.5,5.1-2.3.3,0,.4-.1.7-.2.3-.1.5-.1.7-.2.6-.2,1-.3,1.6-.6,1.6-.6,3.2-1.1,4.8-1.7.8-.4,1.4-.8,2.2-1.2q.2-.1.4-.2c.2-.1.3-.2.5-.4.9-.5,1.7-.9,2.7-1.3.3,0,.4-.1.7-.2.2-.1.4-.1.6-.2.4,0,.7-.1,1.1-.2.4,0,.6,0,1-.1,1-.1,1.8-.2,2.9-.3h.9c.7,0,1.2-.1,1.9-.2.6,0,1.1-.1,1.8-.2.6,0,1,0,1.6-.2h7.5c.5,0,.9,0,1.4,0s.7.2,1.1.3c.3,0,.5,0,.8.1.3,0,.6.2.9.3.2,0,.4.1.6,0,.2,0,.4.2.6.3,3.8,1,7.4,2.1,11,3.2.4.1.8.7.8,1.1.1,2.1-1.1,3.4-3,4.1-.9.4-1.9.6-3.4,1,.8,1.1,1.2,2.1,2,2.8,2,1.9,3.4,3.9,2.9,6.8-.1.8.6,1.9,1.3,2.6,1.6,1.6,3.5,2.9,5,4.5,1.1,1.2,2.6,2.7,2.5,4,0,2.1-2.4,2.7-4.8,3,.4.7.8,1.2,1,1.7.7,1.6,1.5,3,1.1,5-.3,1.8-1.4,4.1.7,6.4,2.2,2.3.3,4.6-2.4,6.8-4,3.1-8.6,5.8-11.4,10.1-2.1,3.2-3.1,3.8-5.8,4.4,0,1.8.2,3.4,1.6,4.9,4.3,4.6,7.3,9.8,9.7,15.5-21.2,0-42.3,0-63.4,0,3.2-11.2,7.5-22.2,13-32.9h0l.2.2Z"/>
      <text class="cls-5" transform="translate(132.7 115.5)"><tspan x="0" y="0" xml:space="preserve">•  Revise rule to increase tax credit </tspan></text>
      <text class="cls-5" transform="translate(141.7 127.5)"><tspan x="0" y="0">benefits to producers making</tspan></text>
      <text class="cls-5" transform="translate(141.7 139.5)"><tspan x="0" y="0">hydrogen from fossil fuels with</tspan></text>
      <text class="cls-5" transform="translate(141.7 150.5)"><tspan x="0" y="0">carbon capture and storage</tspan></text>
      <line class="cls-2" x1="126" y1="96.8" x2="309.3" y2="96.8"/>
      <text class="cls-5" transform="translate(132.7 285.1)"><tspan x="0" y="0" xml:space="preserve">•  Impose more tariffs on China-</tspan></text>
      <text class="cls-5" transform="translate(141.7 297.1)"><tspan x="0" y="0">made solar panels and parts</tspan></text>
      <line class="cls-2" x1="121.2" y1="214.2" x2="309.7" y2="214.2"/>
      <text class="cls-5" transform="translate(132.7 234)"><tspan x="0" y="0" xml:space="preserve">•  Support pausing offshore wind </tspan></text>
      <text class="cls-5" transform="translate(141.7 246)"><tspan x="0" y="0">permits, similar to Biden’s pause</tspan></text>
      <text class="cls-5" transform="translate(141.7 257)"><tspan x="0" y="0">on liquified natural gas permits</tspan></text>
      <line class="cls-2" x1="120.4" y1="269" x2="308.3" y2="269"/>
      <text class="cls-5" transform="translate(132.7 184.3)"><tspan x="0" y="0" xml:space="preserve">•  Support nuclear energy as a form </tspan></text>
      <text class="cls-5" transform="translate(141.7 196.3)"><tspan x="0" y="0">of energy independence</tspan></text>
      <line class="cls-2" x1="121.2" y1="163.9" x2="308.1" y2="163.9"/>
      <g class="cls-13">
        <path class="cls-12" d="M33.1,329.3c0-.6-.2-1.3-.7-1.8-2.9-3.6-7.5-3.5-9.1-3.5-8.5,0-12.1,6.4-12.1,10.8s.6,4.7,1.8,6.6h0c.3.5.6.9.9,1.2,0,0,5.6-2.5,6.3-2.9-.2-.3-1-1.9-1-5.5s0-8.1,3.8-8.9c3.2-.6,3.7,1,2.9,2.3-.3.4-1,1-1,2.1,0,1.8,1.6,3.1,3.7,3.2,2.3,0,4.2-1.4,4.4-3.4v-.2h.1Z"/>
      </g>
      <path class="cls-12" d="M13.7,342.5c2,2.3,5.2,3.7,9.6,3.7,8.4,0,11-4.8,11-4.8l-.3-.2c-2.9,3.6-12,4.5-13.8-1.5"/>
      <polygon class="cls-10" points="36.9 331.5 7.7 344.6 7.7 346.6 36.9 333.5 36.9 331.5"/>
    </g>
  </g>
</svg>